PathFileType	4	(X/Y/Z)	/Users/niels/Desktop/University/Third Semester/Perception and Action/Exam/Gymnastics Motion Tracking/Code for Gym Tracking/Analyzed Data/Webcam_Backflip/id2000_2_trajectory_Sports2D/id2000_2_trajectory_Sports2D_px_person00.trc
DataRate	CameraRate	NumFrames	NumMarkers	Units	OrigDataRate	OrigDataStartFrame	OrigNumFrames
29.8876404494382	29.8876404494382	11	22	m	29.8876404494382	33	267
Frame#	Time	Hip			RHip			RKnee			RAnkle			RBigToe			RSmallToe			RHeel			LHip			LKnee			LAnkle			LBigToe			LSmallToe			LHeel			Neck			Head			Nose			RShoulder			RElbow			RWrist			LShoulder			LElbow			LWrist		
		X1	Y1	Z1	X2	Y2	Z2	X3	Y3	Z3	X4	Y4	Z4	X5	Y5	Z5	X6	Y6	Z6	X7	Y7	Z7	X8	Y8	Z8	X9	Y9	Z9	X10	Y10	Z10	X11	Y11	Z11	X12	Y12	Z12	X13	Y13	Z13	X14	Y14	Z14	X15	Y15	Z15	X16	Y16	Z16	X17	Y17	Z17	X18	Y18	Z18	X19	Y19	Z19	X20	Y20	Z20	X21	Y21	Z21	X22	Y22	Z22
33	1.1041353383458647	1.0439251123311521	-0.4652398876822149	0.0	1.0450641995784387	-0.46979469986609834	0.0	1.0652457091102605	-0.8331481348562223	0.0	1.0178737855158118	-1.075209033309698	0.0	1.2006738022031567	-1.0997536012131766	0.0	1.1132210597109047	-1.1129830288975517	0.0	0.9798716147480689	-1.0857495788909945	0.0	1.0632546577756592	-0.4715386929322525	0.0	1.1009751573971174	-0.8193379685284011	0.0	1.0892529855088737	-1.0360990273304365	0.0	1.1995475090381844	-1.0771583226798778	0.0	1.187090394155343	-1.0638296845160249	0.0	1.053641032761204	-1.0600736674447302	0.0	1.0615423532277857	-0.03533977350279373	0.0	1.1895472878802065	-0.039369641023648136	0.0	1.174572646249302	-0.0033708842545235626	0.0	1.0548134453705884	-0.024195748931773255	0.0	1.0742827751167225	-0.2671708669678947	0.0	1.2004196060435197	-0.49389376561829224	0.0	1.0555225972343345	-0.04068241827821996	0.0	1.0084168448803152	-0.30020999672017357	0.0	1.0660745334828707	-0.4782082785036072	0.0
34	1.1375939849624062	1.045281830052253	-0.4644753732833123	0.0	1.0467024397104894	-0.4686252619625229	0.0	1.0661434007865598	-0.8337283897145121	0.0	1.018991154992422	-1.0736807295859838	0.0	1.2011141964270042	-1.0988308097266668	0.0	1.1189885132525323	-1.1120307855121787	0.0	0.98071361284052	-1.0845323779776976	0.0	1.0693937715775652	-0.4703977688636608	0.0	1.1031326134346027	-0.8203951767201249	0.0	1.0904797365134613	-1.0363573243259234	0.0	1.199984845471073	-1.0764841235960463	0.0	1.1874744881024402	-1.0631149524276484	0.0	1.0559151048168274	-1.060273547776405	0.0	1.0622595905185777	-0.03618745584171473	0.0	1.1916202576796333	-0.039925044380024435	0.0	1.1747199164729059	-0.0030904256779590274	0.0	1.057033656904166	-0.024750222702892434	0.0	1.0772278995361648	-0.2676687951900966	0.0	1.2041226274162766	-0.49325830908198254	0.0	1.0562102626357885	-0.04043056079261131	0.0	1.0135902465750106	-0.3007120084196975	0.0	1.0837693094625884	-0.4855963882374838	0.0
35	1.1710526315789473	1.0464292961112027	-0.4640307650381356	0.0	1.047629421475068	-0.46727571242613614	0.0	1.0672159149306095	-0.8337278999278124	0.0	1.020182829617805	-1.0724980161370563	0.0	1.1990507844275744	-1.0980397536946067	0.0	1.1267831123273044	-1.111651411113642	0.0	0.981409353689191	-1.083539469315212	0.0	1.0754761064720202	-0.4692465047700707	0.0	1.105719655990252	-0.8207567542984706	0.0	1.0919358174904887	-1.03697662842904	0.0	1.2001162021778744	-1.075843101704705	0.0	1.1875198008967909	-1.0626368088571247	0.0	1.0578901738000919	-1.060796338699955	0.0	1.0620747830250745	-0.039041694102734996	0.0	1.1932258774862587	-0.03972514821189385	0.0	1.1741871215146886	-0.002330361805408973	0.0	1.0587212445064769	-0.025408575815341165	0.0	1.0795859370846255	-0.26845366834700213	0.0	1.2063905227978502	-0.49352997934502985	0.0	1.0577688374032672	-0.041191855184481346	0.0	1.0185948487405747	-0.3014377239948898	0.0	1.0975863412091575	-0.49223596573509026	0.0
36	1.2045112781954888	1.0476341089498522	-0.4638498509496325	0.0	1.048251715648542	-0.466176680678737	0.0	1.0684314789418552	-0.8330891397655279	0.0	1.0213343114114046	-1.0718574928461755	0.0	1.195415938207505	-1.0975157220080072	0.0	1.1355450792595327	-1.1116875647677333	0.0	0.9818959638851946	-1.0829517543969829	0.0	1.0806812371816654	-0.46832449974487755	0.0	1.108368093942129	-0.8203485060799364	0.0	1.093327610891719	-1.0378018173996577	0.0	1.1998151887495654	-1.0754099828155184	0.0	1.1871261355091776	-1.0625163633307952	0.0	1.0593291600703316	-1.0615020419777441	0.0	1.0613662640141388	-0.042861533121138023	0.0	1.1938294537637666	-0.038732931684388586	0.0	1.1731897695111764	-0.0012910235562224722	0.0	1.0597420248303402	-0.02617102798587001	0.0	1.0813550570226422	-0.2693872640746231	0.0	1.2072507835864372	-0.49437016103317777	0.0	1.0596347243367237	-0.04254241663223187	0.0	1.0222151969290443	-0.30198572481584884	0.0	1.1065164543639203	-0.49632306352033256	0.0
37	1.2379699248120302	1.0489967895845806	-0.4637080017920725	0.0	1.0489773347318554	-0.4655979231310617	0.0	1.0696807527522405	-0.8322429884703013	0.0	1.022403919948192	-1.0717568911119306	0.0	1.1916367194242592	-1.0972002840186403	0.0	1.1445662252898003	-1.1119688082002668	0.0	0.9822069395075267	-1.0828127819737943	0.0	1.0842206633014233	-0.4677699768421835	0.0	1.110533814172355	-0.8195977079936753	0.0	1.0943413948455767	-1.0387540584194208	0.0	1.1991040538194324	-1.075236891204067	0.0	1.1863647189576807	-1.0626949624322009	0.0	1.0600304781114687	-1.0622373665958555	0.0	1.0606766761481274	-0.046232104233027406	0.0	1.1931046708342266	-0.03725959123874926	0.0	1.1720374399371971	-0.0002767777056641956	0.0	1.0600648043238703	-0.02694465432066232	0.0	1.082538251552349	-0.2702574624242638	0.0	1.2067561425750877	-0.49542509671308144	0.0	1.061313615350478	-0.04383020709563274	0.0	1.0241992673822093	-0.30214065836028187	0.0	1.1122861826442503	-0.4972945992823108	0.0
38	1.2714285714285714	1.0503328012004909	-0.4634442358815924	0.0	1.0498251193895949	-0.4655358115276417	0.0	1.0708485996375754	-0.8315906987283048	0.0	1.0232961483885368	-1.0720710939658031	0.0	1.188664302615311	-1.097047036818039	0.0	1.153378195293747	-1.1123716054584596	0.0	0.9823394529312125	-1.0831206599686931	0.0	1.0856049528775105	-0.46757447760764775	0.0	1.1119047636336874	-0.8189323221455234	0.0	1.094789308553295	-1.0397699436841725	0.0	1.198137035666926	-1.0752301088901612	0.0	1.185386443159551	-1.0630100452274152	0.0	1.0599261209532687	-1.062918819483278	0.0	1.0603720212057128	-0.04828831298371092	0.0	1.191075686523741	-0.035794524350009516	0.0	1.1710404646204868	0.00046990637749607853	0.0	1.0598024839380178	-0.027500398687666468	0.0	1.0831366979595827	-0.2709238174180786	0.0	1.2050499179986829	-0.4965345733423994	0.0	1.0626317591153984	-0.04454101898456626	0.0	1.024975437355561	-0.3019430518853248	0.0	1.1165774631623173	-0.4956854004970456	0.0
39	1.3048872180451128	1.0513000624493969	-0.4630417753250223	0.0	1.0505019582212358	-0.4658860112634429	0.0	1.0718107664492598	-0.8311670595708177	0.0	1.0238882992277336	-1.072651197951137	0.0	1.1867794158912963	-1.0971226725447427	0.0	1.1615738535529823	-1.1128319615644133	0.0	0.9822618974917355	-1.0838651326923576	0.0	1.0847326130966055	-0.4676648637338064	0.0	1.1124849083354562	-0.8183960447095704	0.0	1.0946829202872852	-1.0407383696940609	0.0	1.1971717204165728	-1.075201267657535	0.0	1.1843734432724182	-1.0632772088243732	0.0	1.0591997670081426	-1.0635385550755407	0.0	1.060503715925378	-0.048874762475657335	0.0	1.1879661410926605	-0.034695018345168645	0.0	1.170342732449998	0.0008301035222569533	0.0	1.0591783739969676	-0.027600775584515375	0.0	1.0832057217011677	-0.2714204132413711	0.0	1.2023580385582673	-0.497688169212389	0.0	1.0635462696556999	-0.044418527785876016	0.0	1.02500856012584	-0.3015261004017212	0.0	1.1199528292763357	-0.4924590134998845	0.0
40	1.3383458646616542	1.051582250565895	-0.46251478805209056	0.0	1.050725764011037	-0.4665339223492509	0.0	1.072396093821452	-0.8307647697707193	0.0	1.0241858806741564	-1.0733525158652464	0.0	1.1860464335653909	-1.0974958111348432	0.0	1.1686601622327615	-1.1133313729771752	0.0	0.9820215808635048	-1.0849576443379891	0.0	1.08184106352173	-0.4679566462235272	0.0	1.112451431243042	-0.8176873750837549	0.0	1.0942525453693508	-1.0414882835336503	0.0	1.1966425520216841	-1.074984384998534	0.0	1.183621246548372	-1.0633211863395904	0.0	1.0583304361754842	-1.0641151695172992	0.0	1.0608992365803858	-0.04820921558971835	0.0	1.1840701968932155	-0.034157223568744836	0.0	1.1698947374924056	0.0007327165276648873	0.0	1.0584495004111685	-0.027137799080090716	0.0	1.0828437072035921	-0.27181879524509456	0.0	1.1989352291485535	-0.4989007872554822	0.0	1.0637552833653872	-0.04343181978463843	0.0	1.0242583334939868	-0.30103540127424894	0.0	1.1219876529190405	-0.4884085425139217	0.0
41	1.3718045112781956	1.0509777284488626	-0.46180859467840707	0.0	1.0503336591392858	-0.46724927026932195	0.0	1.0724345980906227	-0.8301762805414412	0.0	1.0243335387474652	-1.0740359880160624	0.0	1.1863797213396088	-1.098105972073923	0.0	1.1740273302164816	-1.113868615204218	0.0	0.9817543121059413	-1.0861988116925536	0.0	1.0775238588778118	-0.46826279999168496	0.0	1.1120947575385662	-0.8164875162971375	0.0	1.0938878946467459	-1.0418686471336593	0.0	1.1970323644453473	-1.0745176065468092	0.0	1.183430964344211	-1.0630351462165246	0.0	1.0579468898275732	-1.064673723653868	0.0	1.0613278439317975	-0.04673515421256762	0.0	1.1798409493678728	-0.034281132166857006	0.0	1.1696100230633322	0.00012202907095763551	0.0	1.057849376852011	-0.02618682153527559	0.0	1.0821134438840814	-0.2720513842627731	0.0	1.1950253525560401	-0.5001856783458604	0.0	1.0628238572121123	-0.0418038546986651	0.0	1.0222349784296798	-0.3005780126916219	0.0	1.1219569176507198	-0.48399417977954606	0.0
42	1.405263157894737	1.0494550884158604	-0.4608660509719932	0.0	1.04925756952195	-0.4677052952610716	0.0	1.0718430443970752	-0.8293879638745894	0.0	1.0244931810521152	-1.0745559219208765	0.0	1.1872436893222504	-1.0987727155795288	0.0	1.1771239070408563	-1.1144231187522038	0.0	0.9816013143598954	-1.0873179592710627	0.0	1.0728124568826989	-0.4683140620044304	0.0	1.111856164960287	-0.8148055796525838	0.0	1.0939478026810652	-1.0418452211140967	0.0	1.198515182197125	-1.0738124184085733	0.0	1.1838077543012446	-1.0624239383926914	0.0	1.058549828703323	-1.0652123028389582	0.0	1.0616252311934242	-0.045120593176299406	0.0	1.1758873506264518	-0.03500110824559316	0.0	1.1694207901921667	-0.0009415956880744318	0.0	1.057551766837039	-0.025002447112986936	0.0	1.0810425257754959	-0.27199375058281494	0.0	1.1908621423588488	-0.5015676066094849	0.0	1.0607937198926283	-0.04002854194931225	0.0	1.0187259029338993	-0.3001561566351872	0.0	1.1196969415152476	-0.47963780364888986	0.0
43	1.4387218045112782	1.047215381640479	-0.4597763244445782	0.0	1.0475522245707858	-0.4677181791026793	0.0	1.070634045372848	-0.8286126810697875	0.0	1.024787684778277	-1.0747594689414794	0.0	1.1877544817536918	-1.0993824083047605	0.0	1.177804938996443	-1.1149246109550925	0.0	0.9816451634514356	-1.0880577056992577	0.0	1.0689877145223174	-0.468007569434009	0.0	1.112241465773832	-0.8130025931061584	0.0	1.094539204564513	-1.0414599908650304	0.0	1.2008111033984916	-1.0728817621628233	0.0	1.1844052310925786	-1.0615310119923231	0.0	1.0602562006951213	-1.0656249863267773	0.0	1.0617577116914239	-0.043967536752605285	0.0	1.1727634369854514	-0.03610272148913188	0.0	1.169246788946784	-0.0022120880808461016	0.0	1.0576265504689863	-0.023876303951895328	0.0	1.0796996479226448	-0.2716736733384488	0.0	1.1866991836848397	-0.5030721533794568	0.0	1.0584695153709123	-0.03862299599009538	0.0	1.0145895261195046	-0.29969500751148603	0.0	1.1162078541574403	-0.4763367294634441	0.0
